<mxfile host="app.diagrams.net" agent="Mozilla/5.0 (Windows NT 10.0; Win64; x64) AppleWebKit/537.36 (KHTML, like Gecko) Chrome/130.0.0.0 Safari/537.36 Edg/130.0.0.0" version="24.8.3">
  <diagram name="Page-1" id="c7558073-3199-34d8-9f00-42111426c3f3">
    <mxGraphModel dx="868" dy="443" grid="1" gridSize="10" guides="1" tooltips="1" connect="1" arrows="1" fold="1" page="1" pageScale="1" pageWidth="826" pageHeight="1169" background="none" math="0" shadow="0">
      <root>
        <mxCell id="0" />
        <mxCell id="1" parent="0" />
        <mxCell id="rSJQmx--hlutwnJ9_qp2-104" value="PID Block" style="swimlane;whiteSpace=wrap;html=1;" vertex="1" parent="1">
          <mxGeometry x="138" y="100" width="550" height="361" as="geometry">
            <mxRectangle x="200" y="30" width="90" height="30" as="alternateBounds" />
          </mxGeometry>
        </mxCell>
        <mxCell id="rSJQmx--hlutwnJ9_qp2-111" style="edgeStyle=orthogonalEdgeStyle;rounded=0;orthogonalLoop=1;jettySize=auto;html=1;exitX=1;exitY=0.5;exitDx=0;exitDy=0;entryX=0;entryY=0.5;entryDx=0;entryDy=0;" edge="1" parent="rSJQmx--hlutwnJ9_qp2-104" source="rSJQmx--hlutwnJ9_qp2-103" target="rSJQmx--hlutwnJ9_qp2-106">
          <mxGeometry relative="1" as="geometry" />
        </mxCell>
        <mxCell id="rSJQmx--hlutwnJ9_qp2-103" value="PID_Error" style="whiteSpace=wrap;align=center;verticalAlign=middle;fontStyle=1;strokeWidth=3;fillColor=#ffe6cc;strokeColor=#d79b00;" vertex="1" parent="rSJQmx--hlutwnJ9_qp2-104">
          <mxGeometry x="52" y="150.5" width="90" height="60" as="geometry" />
        </mxCell>
        <mxCell id="rSJQmx--hlutwnJ9_qp2-113" style="edgeStyle=orthogonalEdgeStyle;rounded=0;orthogonalLoop=1;jettySize=auto;html=1;entryX=0;entryY=0.5;entryDx=0;entryDy=0;" edge="1" parent="rSJQmx--hlutwnJ9_qp2-104" target="rSJQmx--hlutwnJ9_qp2-105">
          <mxGeometry relative="1" as="geometry">
            <mxPoint x="186" y="180" as="sourcePoint" />
            <Array as="points">
              <mxPoint x="186" y="90" />
            </Array>
          </mxGeometry>
        </mxCell>
        <mxCell id="rSJQmx--hlutwnJ9_qp2-129" style="edgeStyle=orthogonalEdgeStyle;rounded=0;orthogonalLoop=1;jettySize=auto;html=1;exitX=1;exitY=0.5;exitDx=0;exitDy=0;entryX=0;entryY=0.5;entryDx=0;entryDy=0;" edge="1" parent="rSJQmx--hlutwnJ9_qp2-104" source="rSJQmx--hlutwnJ9_qp2-105" target="rSJQmx--hlutwnJ9_qp2-126">
          <mxGeometry relative="1" as="geometry">
            <mxPoint x="350" y="140" as="targetPoint" />
          </mxGeometry>
        </mxCell>
        <mxCell id="rSJQmx--hlutwnJ9_qp2-105" value="PID_P" style="whiteSpace=wrap;align=center;verticalAlign=middle;fontStyle=1;strokeWidth=3;fillColor=#d5e8d4;strokeColor=#82b366;" vertex="1" parent="rSJQmx--hlutwnJ9_qp2-104">
          <mxGeometry x="231" y="60" width="90" height="60" as="geometry" />
        </mxCell>
        <mxCell id="rSJQmx--hlutwnJ9_qp2-127" style="edgeStyle=orthogonalEdgeStyle;rounded=0;orthogonalLoop=1;jettySize=auto;html=1;exitX=1;exitY=0.5;exitDx=0;exitDy=0;entryX=0;entryY=0.5;entryDx=0;entryDy=0;" edge="1" parent="rSJQmx--hlutwnJ9_qp2-104" source="rSJQmx--hlutwnJ9_qp2-106" target="rSJQmx--hlutwnJ9_qp2-126">
          <mxGeometry relative="1" as="geometry" />
        </mxCell>
        <mxCell id="rSJQmx--hlutwnJ9_qp2-106" value="PID_I" style="whiteSpace=wrap;align=center;verticalAlign=middle;fontStyle=1;strokeWidth=3;fillColor=#dae8fc;strokeColor=#6c8ebf;" vertex="1" parent="rSJQmx--hlutwnJ9_qp2-104">
          <mxGeometry x="231" y="150.5" width="90" height="60" as="geometry" />
        </mxCell>
        <mxCell id="rSJQmx--hlutwnJ9_qp2-114" style="edgeStyle=orthogonalEdgeStyle;rounded=0;orthogonalLoop=1;jettySize=auto;html=1;entryX=0;entryY=0.5;entryDx=0;entryDy=0;" edge="1" parent="rSJQmx--hlutwnJ9_qp2-104" target="rSJQmx--hlutwnJ9_qp2-108">
          <mxGeometry relative="1" as="geometry">
            <mxPoint x="186" y="180" as="sourcePoint" />
            <Array as="points">
              <mxPoint x="186" y="270" />
            </Array>
          </mxGeometry>
        </mxCell>
        <mxCell id="rSJQmx--hlutwnJ9_qp2-130" style="edgeStyle=orthogonalEdgeStyle;rounded=0;orthogonalLoop=1;jettySize=auto;html=1;exitX=1;exitY=0.5;exitDx=0;exitDy=0;entryX=0;entryY=0.5;entryDx=0;entryDy=0;" edge="1" parent="rSJQmx--hlutwnJ9_qp2-104" source="rSJQmx--hlutwnJ9_qp2-108" target="rSJQmx--hlutwnJ9_qp2-126">
          <mxGeometry relative="1" as="geometry">
            <mxPoint x="350" y="210" as="targetPoint" />
          </mxGeometry>
        </mxCell>
        <mxCell id="rSJQmx--hlutwnJ9_qp2-108" value="PID_D" style="whiteSpace=wrap;align=center;verticalAlign=middle;fontStyle=1;strokeWidth=3;fillColor=#f8cecc;strokeColor=#b85450;" vertex="1" parent="rSJQmx--hlutwnJ9_qp2-104">
          <mxGeometry x="231" y="240" width="90" height="60" as="geometry" />
        </mxCell>
        <mxCell id="rSJQmx--hlutwnJ9_qp2-110" style="edgeStyle=orthogonalEdgeStyle;rounded=0;orthogonalLoop=1;jettySize=auto;html=1;exitX=0;exitY=0.5;exitDx=0;exitDy=0;entryX=0;entryY=0.5;entryDx=0;entryDy=0;" edge="1" parent="rSJQmx--hlutwnJ9_qp2-104" source="rSJQmx--hlutwnJ9_qp2-104" target="rSJQmx--hlutwnJ9_qp2-103">
          <mxGeometry relative="1" as="geometry" />
        </mxCell>
        <mxCell id="rSJQmx--hlutwnJ9_qp2-131" style="edgeStyle=orthogonalEdgeStyle;rounded=0;orthogonalLoop=1;jettySize=auto;html=1;exitX=1;exitY=0.5;exitDx=0;exitDy=0;entryX=1;entryY=0.5;entryDx=0;entryDy=0;" edge="1" parent="rSJQmx--hlutwnJ9_qp2-104" source="rSJQmx--hlutwnJ9_qp2-126" target="rSJQmx--hlutwnJ9_qp2-104">
          <mxGeometry relative="1" as="geometry">
            <Array as="points">
              <mxPoint x="510" y="181" />
              <mxPoint x="510" y="181" />
            </Array>
          </mxGeometry>
        </mxCell>
        <mxCell id="rSJQmx--hlutwnJ9_qp2-126" value="SUM" style="whiteSpace=wrap;align=center;verticalAlign=middle;fontStyle=1;strokeWidth=3;" vertex="1" parent="rSJQmx--hlutwnJ9_qp2-104">
          <mxGeometry x="390" y="150.5" width="90" height="60" as="geometry" />
        </mxCell>
        <mxCell id="rSJQmx--hlutwnJ9_qp2-132" value="u(t)" style="text;html=1;align=center;verticalAlign=middle;resizable=0;points=[];autosize=1;strokeColor=none;fillColor=none;" vertex="1" parent="rSJQmx--hlutwnJ9_qp2-104">
          <mxGeometry x="490" y="150.5" width="40" height="30" as="geometry" />
        </mxCell>
        <mxCell id="rSJQmx--hlutwnJ9_qp2-115" value="Error" style="text;html=1;align=center;verticalAlign=middle;resizable=0;points=[];autosize=1;strokeColor=none;fillColor=none;" vertex="1" parent="rSJQmx--hlutwnJ9_qp2-104">
          <mxGeometry x="139" y="150.5" width="50" height="30" as="geometry" />
        </mxCell>
        <mxCell id="rSJQmx--hlutwnJ9_qp2-116" value="x(t)" style="text;html=1;align=center;verticalAlign=middle;resizable=0;points=[];autosize=1;strokeColor=none;fillColor=none;" vertex="1" parent="rSJQmx--hlutwnJ9_qp2-104">
          <mxGeometry x="10" y="150.5" width="40" height="30" as="geometry" />
        </mxCell>
        <mxCell id="rSJQmx--hlutwnJ9_qp2-133" value="PID_Error" style="swimlane;whiteSpace=wrap;html=1;fillColor=#ffe6cc;strokeColor=#d79b00;" vertex="1" parent="1">
          <mxGeometry x="23" y="510" width="380" height="240" as="geometry">
            <mxRectangle x="210" y="410" width="90" height="30" as="alternateBounds" />
          </mxGeometry>
        </mxCell>
        <mxCell id="rSJQmx--hlutwnJ9_qp2-156" style="edgeStyle=orthogonalEdgeStyle;rounded=0;orthogonalLoop=1;jettySize=auto;html=1;exitX=1;exitY=0.5;exitDx=0;exitDy=0;" edge="1" parent="rSJQmx--hlutwnJ9_qp2-133" source="rSJQmx--hlutwnJ9_qp2-146">
          <mxGeometry relative="1" as="geometry">
            <mxPoint x="380" y="89.72727272727263" as="targetPoint" />
          </mxGeometry>
        </mxCell>
        <mxCell id="rSJQmx--hlutwnJ9_qp2-146" value="Product" style="whiteSpace=wrap;align=center;verticalAlign=middle;fontStyle=1;strokeWidth=3;" vertex="1" parent="rSJQmx--hlutwnJ9_qp2-133">
          <mxGeometry x="218" y="59.5" width="90" height="60" as="geometry" />
        </mxCell>
        <mxCell id="rSJQmx--hlutwnJ9_qp2-147" value="Error" style="text;html=1;align=center;verticalAlign=middle;resizable=0;points=[];autosize=1;strokeColor=none;fillColor=none;" vertex="1" parent="rSJQmx--hlutwnJ9_qp2-133">
          <mxGeometry x="317" y="62.5" width="50" height="30" as="geometry" />
        </mxCell>
        <mxCell id="rSJQmx--hlutwnJ9_qp2-149" value="x(t)" style="text;html=1;align=center;verticalAlign=middle;resizable=0;points=[];autosize=1;strokeColor=none;fillColor=none;" vertex="1" parent="rSJQmx--hlutwnJ9_qp2-133">
          <mxGeometry x="8" y="62.5" width="40" height="30" as="geometry" />
        </mxCell>
        <mxCell id="rSJQmx--hlutwnJ9_qp2-152" style="edgeStyle=orthogonalEdgeStyle;rounded=0;orthogonalLoop=1;jettySize=auto;html=1;entryX=0;entryY=0.5;entryDx=0;entryDy=0;" edge="1" parent="rSJQmx--hlutwnJ9_qp2-133" source="rSJQmx--hlutwnJ9_qp2-150" target="rSJQmx--hlutwnJ9_qp2-146">
          <mxGeometry relative="1" as="geometry">
            <Array as="points">
              <mxPoint x="170" y="179" />
              <mxPoint x="170" y="90" />
            </Array>
          </mxGeometry>
        </mxCell>
        <mxCell id="rSJQmx--hlutwnJ9_qp2-150" value="Setpoint" style="whiteSpace=wrap;align=center;verticalAlign=middle;fontStyle=1;strokeWidth=3;" vertex="1" parent="rSJQmx--hlutwnJ9_qp2-133">
          <mxGeometry x="47" y="149" width="90" height="60" as="geometry" />
        </mxCell>
        <mxCell id="rSJQmx--hlutwnJ9_qp2-155" style="edgeStyle=orthogonalEdgeStyle;rounded=0;orthogonalLoop=1;jettySize=auto;html=1;exitX=1;exitY=0.5;exitDx=0;exitDy=0;entryX=0;entryY=0.5;entryDx=0;entryDy=0;" edge="1" parent="rSJQmx--hlutwnJ9_qp2-133" source="rSJQmx--hlutwnJ9_qp2-151" target="rSJQmx--hlutwnJ9_qp2-146">
          <mxGeometry relative="1" as="geometry" />
        </mxCell>
        <mxCell id="rSJQmx--hlutwnJ9_qp2-157" style="edgeStyle=orthogonalEdgeStyle;rounded=0;orthogonalLoop=1;jettySize=auto;html=1;exitX=0;exitY=0.5;exitDx=0;exitDy=0;entryX=0;entryY=0.5;entryDx=0;entryDy=0;" edge="1" parent="rSJQmx--hlutwnJ9_qp2-133" target="rSJQmx--hlutwnJ9_qp2-151">
          <mxGeometry relative="1" as="geometry">
            <mxPoint y="89.72727272727263" as="sourcePoint" />
          </mxGeometry>
        </mxCell>
        <mxCell id="rSJQmx--hlutwnJ9_qp2-151" value="Negate" style="whiteSpace=wrap;align=center;verticalAlign=middle;fontStyle=1;strokeWidth=3;" vertex="1" parent="rSJQmx--hlutwnJ9_qp2-133">
          <mxGeometry x="47" y="59.5" width="90" height="60" as="geometry" />
        </mxCell>
        <mxCell id="rSJQmx--hlutwnJ9_qp2-159" value="PID_P" style="swimlane;whiteSpace=wrap;html=1;fillColor=#d5e8d4;strokeColor=#82b366;" vertex="1" parent="1">
          <mxGeometry x="23" y="760" width="382" height="240" as="geometry">
            <mxRectangle x="200" y="650" width="90" height="30" as="alternateBounds" />
          </mxGeometry>
        </mxCell>
        <mxCell id="rSJQmx--hlutwnJ9_qp2-162" value="Result_P" style="text;html=1;align=center;verticalAlign=middle;resizable=0;points=[];autosize=1;strokeColor=none;fillColor=none;" vertex="1" parent="rSJQmx--hlutwnJ9_qp2-159">
          <mxGeometry x="312" y="61.5" width="70" height="30" as="geometry" />
        </mxCell>
        <mxCell id="rSJQmx--hlutwnJ9_qp2-163" value="Error" style="text;html=1;align=center;verticalAlign=middle;resizable=0;points=[];autosize=1;strokeColor=none;fillColor=none;" vertex="1" parent="rSJQmx--hlutwnJ9_qp2-159">
          <mxGeometry y="63" width="50" height="30" as="geometry" />
        </mxCell>
        <mxCell id="rSJQmx--hlutwnJ9_qp2-165" value="Kp" style="whiteSpace=wrap;align=center;verticalAlign=middle;fontStyle=1;strokeWidth=3;" vertex="1" parent="rSJQmx--hlutwnJ9_qp2-159">
          <mxGeometry x="47" y="149" width="90" height="60" as="geometry" />
        </mxCell>
        <mxCell id="rSJQmx--hlutwnJ9_qp2-172" style="edgeStyle=orthogonalEdgeStyle;rounded=0;orthogonalLoop=1;jettySize=auto;html=1;exitX=1;exitY=0.5;exitDx=0;exitDy=0;" edge="1" parent="rSJQmx--hlutwnJ9_qp2-159" source="rSJQmx--hlutwnJ9_qp2-170">
          <mxGeometry relative="1" as="geometry">
            <mxPoint x="380" y="92.55555555555543" as="targetPoint" />
          </mxGeometry>
        </mxCell>
        <mxCell id="rSJQmx--hlutwnJ9_qp2-170" value="Product" style="whiteSpace=wrap;align=center;verticalAlign=middle;fontStyle=1;strokeWidth=3;" vertex="1" parent="rSJQmx--hlutwnJ9_qp2-159">
          <mxGeometry x="213" y="62.5" width="90" height="60" as="geometry" />
        </mxCell>
        <mxCell id="rSJQmx--hlutwnJ9_qp2-171" value="" style="edgeStyle=orthogonalEdgeStyle;rounded=0;orthogonalLoop=1;jettySize=auto;html=1;entryX=0;entryY=0.5;entryDx=0;entryDy=0;" edge="1" parent="rSJQmx--hlutwnJ9_qp2-159" source="rSJQmx--hlutwnJ9_qp2-165" target="rSJQmx--hlutwnJ9_qp2-170">
          <mxGeometry relative="1" as="geometry">
            <mxPoint x="337" y="829" as="sourcePoint" />
            <mxPoint x="437" y="739.5" as="targetPoint" />
          </mxGeometry>
        </mxCell>
        <mxCell id="rSJQmx--hlutwnJ9_qp2-176" style="edgeStyle=orthogonalEdgeStyle;rounded=0;orthogonalLoop=1;jettySize=auto;html=1;entryX=0;entryY=0.5;entryDx=0;entryDy=0;" edge="1" parent="rSJQmx--hlutwnJ9_qp2-159" target="rSJQmx--hlutwnJ9_qp2-170">
          <mxGeometry relative="1" as="geometry">
            <mxPoint y="93" as="sourcePoint" />
            <Array as="points">
              <mxPoint x="40" y="93" />
              <mxPoint x="40" y="93" />
            </Array>
          </mxGeometry>
        </mxCell>
        <mxCell id="rSJQmx--hlutwnJ9_qp2-186" value="PID_I" style="swimlane;whiteSpace=wrap;html=1;fillColor=#dae8fc;strokeColor=#6c8ebf;startSize=23;" vertex="1" parent="1">
          <mxGeometry x="423" y="510" width="380" height="240" as="geometry">
            <mxRectangle x="210" y="410" width="90" height="30" as="alternateBounds" />
          </mxGeometry>
        </mxCell>
        <mxCell id="rSJQmx--hlutwnJ9_qp2-187" style="edgeStyle=orthogonalEdgeStyle;rounded=0;orthogonalLoop=1;jettySize=auto;html=1;exitX=1;exitY=0.5;exitDx=0;exitDy=0;" edge="1" parent="rSJQmx--hlutwnJ9_qp2-186" source="rSJQmx--hlutwnJ9_qp2-188">
          <mxGeometry relative="1" as="geometry">
            <mxPoint x="380" y="89.72727272727263" as="targetPoint" />
          </mxGeometry>
        </mxCell>
        <mxCell id="rSJQmx--hlutwnJ9_qp2-188" value="Product" style="whiteSpace=wrap;align=center;verticalAlign=middle;fontStyle=1;strokeWidth=3;" vertex="1" parent="rSJQmx--hlutwnJ9_qp2-186">
          <mxGeometry x="218" y="59.5" width="90" height="60" as="geometry" />
        </mxCell>
        <mxCell id="rSJQmx--hlutwnJ9_qp2-189" value="Result_I" style="text;html=1;align=center;verticalAlign=middle;resizable=0;points=[];autosize=1;strokeColor=none;fillColor=none;" vertex="1" parent="rSJQmx--hlutwnJ9_qp2-186">
          <mxGeometry x="307" y="62.5" width="70" height="30" as="geometry" />
        </mxCell>
        <mxCell id="rSJQmx--hlutwnJ9_qp2-190" value="Error" style="text;html=1;align=center;verticalAlign=middle;resizable=0;points=[];autosize=1;strokeColor=none;fillColor=none;" vertex="1" parent="rSJQmx--hlutwnJ9_qp2-186">
          <mxGeometry y="59.5" width="50" height="30" as="geometry" />
        </mxCell>
        <mxCell id="rSJQmx--hlutwnJ9_qp2-191" style="edgeStyle=orthogonalEdgeStyle;rounded=0;orthogonalLoop=1;jettySize=auto;html=1;entryX=0;entryY=0.5;entryDx=0;entryDy=0;" edge="1" parent="rSJQmx--hlutwnJ9_qp2-186" source="rSJQmx--hlutwnJ9_qp2-192" target="rSJQmx--hlutwnJ9_qp2-188">
          <mxGeometry relative="1" as="geometry">
            <Array as="points">
              <mxPoint x="170" y="179" />
              <mxPoint x="170" y="90" />
            </Array>
          </mxGeometry>
        </mxCell>
        <mxCell id="rSJQmx--hlutwnJ9_qp2-192" value="Ki" style="whiteSpace=wrap;align=center;verticalAlign=middle;fontStyle=1;strokeWidth=3;" vertex="1" parent="rSJQmx--hlutwnJ9_qp2-186">
          <mxGeometry x="218" y="149" width="90" height="60" as="geometry" />
        </mxCell>
        <mxCell id="rSJQmx--hlutwnJ9_qp2-193" style="edgeStyle=orthogonalEdgeStyle;rounded=0;orthogonalLoop=1;jettySize=auto;html=1;exitX=1;exitY=0.5;exitDx=0;exitDy=0;entryX=0;entryY=0.5;entryDx=0;entryDy=0;" edge="1" parent="rSJQmx--hlutwnJ9_qp2-186" source="rSJQmx--hlutwnJ9_qp2-195" target="rSJQmx--hlutwnJ9_qp2-188">
          <mxGeometry relative="1" as="geometry" />
        </mxCell>
        <mxCell id="rSJQmx--hlutwnJ9_qp2-194" style="edgeStyle=orthogonalEdgeStyle;rounded=0;orthogonalLoop=1;jettySize=auto;html=1;exitX=0;exitY=0.5;exitDx=0;exitDy=0;entryX=0;entryY=0.5;entryDx=0;entryDy=0;" edge="1" parent="rSJQmx--hlutwnJ9_qp2-186" target="rSJQmx--hlutwnJ9_qp2-195">
          <mxGeometry relative="1" as="geometry">
            <mxPoint y="89.72727272727263" as="sourcePoint" />
          </mxGeometry>
        </mxCell>
        <mxCell id="rSJQmx--hlutwnJ9_qp2-195" value="Integral" style="whiteSpace=wrap;align=center;verticalAlign=middle;fontStyle=1;strokeWidth=3;" vertex="1" parent="rSJQmx--hlutwnJ9_qp2-186">
          <mxGeometry x="47" y="59.5" width="90" height="60" as="geometry" />
        </mxCell>
        <mxCell id="rSJQmx--hlutwnJ9_qp2-201" style="edgeStyle=orthogonalEdgeStyle;rounded=0;orthogonalLoop=1;jettySize=auto;html=1;exitX=0;exitY=0.5;exitDx=0;exitDy=0;entryX=0;entryY=0.5;entryDx=0;entryDy=0;" edge="1" parent="rSJQmx--hlutwnJ9_qp2-186" source="rSJQmx--hlutwnJ9_qp2-197" target="rSJQmx--hlutwnJ9_qp2-195">
          <mxGeometry relative="1" as="geometry">
            <Array as="points">
              <mxPoint x="20" y="179" />
              <mxPoint x="20" y="90" />
            </Array>
          </mxGeometry>
        </mxCell>
        <mxCell id="rSJQmx--hlutwnJ9_qp2-197" value="I_init" style="whiteSpace=wrap;align=center;verticalAlign=middle;fontStyle=1;strokeWidth=3;" vertex="1" parent="rSJQmx--hlutwnJ9_qp2-186">
          <mxGeometry x="48" y="149" width="90" height="60" as="geometry" />
        </mxCell>
        <mxCell id="rSJQmx--hlutwnJ9_qp2-203" value="PID_D" style="swimlane;whiteSpace=wrap;html=1;fillColor=#f8cecc;strokeColor=#b85450;startSize=23;" vertex="1" parent="1">
          <mxGeometry x="423" y="760" width="380" height="240" as="geometry">
            <mxRectangle x="210" y="410" width="90" height="30" as="alternateBounds" />
          </mxGeometry>
        </mxCell>
        <mxCell id="rSJQmx--hlutwnJ9_qp2-204" style="edgeStyle=orthogonalEdgeStyle;rounded=0;orthogonalLoop=1;jettySize=auto;html=1;exitX=1;exitY=0.5;exitDx=0;exitDy=0;" edge="1" parent="rSJQmx--hlutwnJ9_qp2-203" source="rSJQmx--hlutwnJ9_qp2-205">
          <mxGeometry relative="1" as="geometry">
            <mxPoint x="380" y="89.72727272727263" as="targetPoint" />
          </mxGeometry>
        </mxCell>
        <mxCell id="rSJQmx--hlutwnJ9_qp2-205" value="Product" style="whiteSpace=wrap;align=center;verticalAlign=middle;fontStyle=1;strokeWidth=3;" vertex="1" parent="rSJQmx--hlutwnJ9_qp2-203">
          <mxGeometry x="218" y="59.5" width="90" height="60" as="geometry" />
        </mxCell>
        <mxCell id="rSJQmx--hlutwnJ9_qp2-206" value="Result_D" style="text;html=1;align=center;verticalAlign=middle;resizable=0;points=[];autosize=1;strokeColor=none;fillColor=none;" vertex="1" parent="rSJQmx--hlutwnJ9_qp2-203">
          <mxGeometry x="307" y="62.5" width="70" height="30" as="geometry" />
        </mxCell>
        <mxCell id="rSJQmx--hlutwnJ9_qp2-207" value="Error" style="text;html=1;align=center;verticalAlign=middle;resizable=0;points=[];autosize=1;strokeColor=none;fillColor=none;" vertex="1" parent="rSJQmx--hlutwnJ9_qp2-203">
          <mxGeometry y="59.5" width="50" height="30" as="geometry" />
        </mxCell>
        <mxCell id="rSJQmx--hlutwnJ9_qp2-208" style="edgeStyle=orthogonalEdgeStyle;rounded=0;orthogonalLoop=1;jettySize=auto;html=1;entryX=0;entryY=0.5;entryDx=0;entryDy=0;" edge="1" parent="rSJQmx--hlutwnJ9_qp2-203" source="rSJQmx--hlutwnJ9_qp2-209" target="rSJQmx--hlutwnJ9_qp2-205">
          <mxGeometry relative="1" as="geometry">
            <Array as="points">
              <mxPoint x="170" y="179" />
              <mxPoint x="170" y="90" />
            </Array>
          </mxGeometry>
        </mxCell>
        <mxCell id="rSJQmx--hlutwnJ9_qp2-209" value="Kd" style="whiteSpace=wrap;align=center;verticalAlign=middle;fontStyle=1;strokeWidth=3;" vertex="1" parent="rSJQmx--hlutwnJ9_qp2-203">
          <mxGeometry x="218" y="149" width="90" height="60" as="geometry" />
        </mxCell>
        <mxCell id="rSJQmx--hlutwnJ9_qp2-210" style="edgeStyle=orthogonalEdgeStyle;rounded=0;orthogonalLoop=1;jettySize=auto;html=1;exitX=1;exitY=0.5;exitDx=0;exitDy=0;entryX=0;entryY=0.5;entryDx=0;entryDy=0;" edge="1" parent="rSJQmx--hlutwnJ9_qp2-203" source="rSJQmx--hlutwnJ9_qp2-212" target="rSJQmx--hlutwnJ9_qp2-205">
          <mxGeometry relative="1" as="geometry" />
        </mxCell>
        <mxCell id="rSJQmx--hlutwnJ9_qp2-211" style="edgeStyle=orthogonalEdgeStyle;rounded=0;orthogonalLoop=1;jettySize=auto;html=1;exitX=0;exitY=0.5;exitDx=0;exitDy=0;entryX=0;entryY=0.5;entryDx=0;entryDy=0;" edge="1" parent="rSJQmx--hlutwnJ9_qp2-203" target="rSJQmx--hlutwnJ9_qp2-212">
          <mxGeometry relative="1" as="geometry">
            <mxPoint y="89.72727272727263" as="sourcePoint" />
          </mxGeometry>
        </mxCell>
        <mxCell id="rSJQmx--hlutwnJ9_qp2-212" value="Derivator" style="whiteSpace=wrap;align=center;verticalAlign=middle;fontStyle=1;strokeWidth=3;" vertex="1" parent="rSJQmx--hlutwnJ9_qp2-203">
          <mxGeometry x="47" y="59.5" width="90" height="60" as="geometry" />
        </mxCell>
        <mxCell id="rSJQmx--hlutwnJ9_qp2-213" style="edgeStyle=orthogonalEdgeStyle;rounded=0;orthogonalLoop=1;jettySize=auto;html=1;exitX=0;exitY=0.5;exitDx=0;exitDy=0;entryX=0;entryY=0.5;entryDx=0;entryDy=0;" edge="1" parent="rSJQmx--hlutwnJ9_qp2-203" source="rSJQmx--hlutwnJ9_qp2-214" target="rSJQmx--hlutwnJ9_qp2-212">
          <mxGeometry relative="1" as="geometry">
            <Array as="points">
              <mxPoint x="20" y="179" />
              <mxPoint x="20" y="90" />
            </Array>
          </mxGeometry>
        </mxCell>
        <mxCell id="rSJQmx--hlutwnJ9_qp2-214" value="D_init" style="whiteSpace=wrap;align=center;verticalAlign=middle;fontStyle=1;strokeWidth=3;" vertex="1" parent="rSJQmx--hlutwnJ9_qp2-203">
          <mxGeometry x="48" y="149" width="90" height="60" as="geometry" />
        </mxCell>
      </root>
    </mxGraphModel>
  </diagram>
</mxfile>
